<svg width="1000" height="1130" xmlns="http://www.w3.org/2000/svg">

  <!-- Arrow marker -->
  <defs>
    <marker id="arrow" markerWidth="10" markerHeight="10" refX="10" refY="3" orient="auto">
      <path d="M0,0 L10,3 L0,6 Z" fill="#555"/>
    </marker>
  </defs>

  <!-- ===================== -->
  <!-- Diagram 1 -->
  <!-- ===================== -->

  <!-- UIComposer -->
  <rect x="60" y="80" width="180" height="60" rx="10" fill="#e3f2fd" stroke="#90caf9"/>
  <text x="150" y="116" text-anchor="middle" fill="#0d47a1" font-size="15">
    UIComposer
  </text>

  <!-- MainController -->
  <rect x="760" y="80" width="180" height="60" rx="10" fill="#e8f5e9" stroke="#a5d6a7"/>
  <text x="850" y="116" text-anchor="middle" fill="#1b5e20" font-size="15">
    MainController
  </text>

  <!-- Arrow -->
  <line x1="240" y1="110" x2="760" y2="110" stroke="#555" stroke-width="2" marker-end="url(#arrow)"/>
  <text x="500" y="84" text-anchor="middle" font-size="15" fill="#333">
    UIBundle
  </text>

  <!-- Note -->
  <text x="500" y="180" text-anchor="middle" font-size="14" fill="#555">
    UIBundle = all application controllers
  </text>

  <!-- ===================== -->
  <!-- Diagram 2 -->
  <!-- ===================== -->

  <!-- ServiceComposer -->
  <rect x="60" y="250" width="180" height="60" rx="10" fill="#fff3e0" stroke="#ffcc80"/>
  <text x="150" y="286" text-anchor="middle" fill="#e65100" font-size="15">
    ServiceComposer
  </text>

  <!-- MainController -->
  <rect x="760" y="250" width="180" height="60" rx="10" fill="#e8f5e9" stroke="#a5d6a7"/>
  <text x="850" y="286" text-anchor="middle" fill="#1b5e20" font-size="15">
    MainController
  </text>

  <!-- Arrow -->
  <line x1="240" y1="280" x2="760" y2="280" stroke="#555" stroke-width="2" marker-end="url(#arrow)"/>
  <text x="500" y="254" text-anchor="middle" font-size="15" fill="#333">
    ServiceBundle
  </text>

  <!-- Note -->
  <text x="500" y="350" text-anchor="middle" font-size="14" fill="#555">
    ServiceBundle = all service controllers
  </text>

  <!-- ===================== -->
  <!-- Diagram 3 -->
  <!-- ===================== -->

  <!-- MainController -->
  <rect x="60" y="420" width="180" height="60" rx="10" fill="#e3f2fd" stroke="#90caf9"/>
  <text x="150" y="456" text-anchor="middle" fill="#0d47a1" font-size="15">
    MainController
  </text>

  <!-- PDFController -->
  <rect x="410" y="420" width="180" height="60" rx="10" fill="#e8f5e9" stroke="#a5d6a7"/>
  <text x="500" y="456" text-anchor="middle" fill="#1b5e20" font-size="15">
    PDFController
  </text>

  <!-- PDFService -->
  <rect x="760" y="420" width="180" height="60" rx="10" fill="#f3e5f5" stroke="#ce93d8"/>
  <text x="850" y="456" text-anchor="middle" fill="#6a1b9a" font-size="15">
    PDFService
  </text>

  <!-- Left side arrows -->
  <line x1="240" y1="435" x2="410" y2="435" stroke="#555" stroke-width="2" marker-end="url(#arrow)"/>
  <text x="325" y="410" text-anchor="middle" font-size="14" fill="#333">
    1. file_path
  </text>

  <line x1="410" y1="465" x2="240" y2="465" stroke="#555" stroke-width="2" marker-end="url(#arrow)"/>
  <text x="325" y="495" text-anchor="middle" font-size="14" fill="#333">
    4. PDFDocument
  </text>

  <!-- Right side arrows -->
  <line x1="590" y1="435" x2="760" y2="435" stroke="#555" stroke-width="2" marker-end="url(#arrow)"/>
  <text x="675" y="410" text-anchor="middle" font-size="14" fill="#333">
    2. file_path
  </text>

  <line x1="760" y1="465" x2="590" y2="465" stroke="#555" stroke-width="2" marker-end="url(#arrow)"/>
  <text x="675" y="495" text-anchor="middle" font-size="14" fill="#333">
    3. extracted_text (str)
  </text>

  <!-- ===================== -->
  <!-- Diagram 4 -->
  <!-- ===================== -->

  <!-- MainController -->
  <rect x="60" y="590" width="180" height="60" rx="10" fill="#e3f2fd" stroke="#90caf9"/>
  <text x="150" y="626" text-anchor="middle" fill="#0d47a1" font-size="15">
    MainController
  </text>

  <!-- ToolbarController -->
  <rect x="410" y="590" width="180" height="60" rx="10" fill="#e8f5e9" stroke="#a5d6a7"/>
  <text x="500" y="626" text-anchor="middle" fill="#1b5e20" font-size="15">
    ToolbarController
  </text>

  <!-- ToolbarComponent -->
  <rect x="760" y="590" width="180" height="60" rx="10" fill="#fff3e0" stroke="#ffcc80"/>
  <text x="850" y="626" text-anchor="middle" fill="#e65100" font-size="15">
    ToolbarComponent
  </text>

  <!-- Arrow 1 -->
  <line x1="240" y1="620" x2="410" y2="620" stroke="#555" stroke-width="2" marker-end="url(#arrow)"/>
  <text x="325" y="594" text-anchor="middle" font-size="15" fill="#333">
    PDFDocument
  </text>

  <!-- Arrow 2 -->
  <line x1="590" y1="620" x2="760" y2="620" stroke="#555" stroke-width="2" marker-end="url(#arrow)"/>
  <text x="675" y="594" text-anchor="middle" font-size="15" fill="#333">
    file_name
  </text>

  <!-- ===================== -->
  <!-- Diagram 5 -->
  <!-- ===================== -->

  <!-- MainController -->
  <rect x="60" y="760" width="180" height="60" rx="10" fill="#e3f2fd" stroke="#90caf9"/>
  <text x="150" y="796" text-anchor="middle" fill="#0d47a1" font-size="15">
    MainController
  </text>

  <!-- LLMController -->
  <rect x="410" y="760" width="180" height="60" rx="10" fill="#e8f5e9" stroke="#a5d6a7"/>
  <text x="500" y="796" text-anchor="middle" fill="#1b5e20" font-size="15">
    LLMController
  </text>

  <!-- LLMService -->
  <rect x="760" y="760" width="180" height="60" rx="10" fill="#f3e5f5" stroke="#ce93d8"/>
  <text x="850" y="796" text-anchor="middle" fill="#6a1b9a" font-size="15">
    LLMService
  </text>

  <!-- Left side arrows -->
  <line x1="240" y1="775" x2="410" y2="775" stroke="#555" stroke-width="2" marker-end="url(#arrow)"/>
  <text x="325" y="750" text-anchor="middle" font-size="14" fill="#333">
    1. LLMTransaction
  </text>

  <line x1="410" y1="805" x2="240" y2="805" stroke="#555" stroke-width="2" marker-end="url(#arrow)"/>
  <text x="325" y="835" text-anchor="middle" font-size="14" fill="#333">
    4. LLMTransaction
  </text>

  <!-- Right side arrows -->
  <line x1="590" y1="775" x2="760" y2="775" stroke="#555" stroke-width="2" marker-end="url(#arrow)"/>
  <text x="675" y="750" text-anchor="middle" font-size="14" fill="#333">
    2. raw request fields
  </text>

  <line x1="760" y1="805" x2="590" y2="805" stroke="#555" stroke-width="2" marker-end="url(#arrow)"/>
  <text x="675" y="835" text-anchor="middle" font-size="14" fill="#333">
    3. raw response
  </text>

  <!-- Note -->
  <text x="500" y="900" text-anchor="middle" font-size="14" fill="#555">
    raw request fields = pdf_text + history + user_message
  </text>

  <!-- ===================== -->
  <!-- Diagram 6 -->
  <!-- ===================== -->

  <!-- MainController -->
  <rect x="60" y="930" width="180" height="60" rx="10" fill="#e3f2fd" stroke="#90caf9"/>
  <text x="150" y="966" text-anchor="middle" fill="#0d47a1" font-size="15">
    MainController
  </text>

  <!-- ChatAreaController -->
  <rect x="410" y="930" width="180" height="60" rx="10" fill="#e8f5e9" stroke="#a5d6a7"/>
  <text x="500" y="966" text-anchor="middle" fill="#1b5e20" font-size="15">
    ChatAreaController
  </text>

  <!-- ChatAreaComponent -->
  <rect x="760" y="930" width="180" height="60" rx="10" fill="#fff3e0" stroke="#ffcc80"/>
  <text x="850" y="966" text-anchor="middle" fill="#e65100" font-size="15">
    ChatAreaComponent
  </text>

  <!-- Upper arrows -->
  <line x1="240" y1="945" x2="410" y2="945" stroke="#555" stroke-width="2" marker-end="url(#arrow)"/>
  <text x="325" y="920" text-anchor="middle" font-size="14" fill="#333">
    1. user ChatMessage
  </text>

  <line x1="590" y1="945" x2="760" y2="945" stroke="#555" stroke-width="2" marker-end="url(#arrow)"/>
  <text x="675" y="920" text-anchor="middle" font-size="14" fill="#333">
    2. chat data
  </text>

  <!-- Lower arrows -->
  <line x1="240" y1="975" x2="410" y2="975" stroke="#555" stroke-width="2" marker-end="url(#arrow)"/>
  <text x="325" y="1005" text-anchor="middle" font-size="14" fill="#333">
    3. assistant ChatMessage
  </text>

  <line x1="590" y1="975" x2="760" y2="975" stroke="#555" stroke-width="2" marker-end="url(#arrow)"/>
  <text x="675" y="1005" text-anchor="middle" font-size="14" fill="#333">
    4. chat data
  </text>

  <!-- Note -->
  <text x="500" y="1070" text-anchor="middle" font-size="14" fill="#555">
    chat data = (role, content)
  </text>

</svg>
