<svg width="1000" height="760" xmlns="http://www.w3.org/2000/svg">

  <!-- Arrow marker -->
  <defs>
    <marker id="arrow" markerWidth="10" markerHeight="10" refX="10" refY="3" orient="auto">
      <path d="M0,0 L10,3 L0,6 Z" fill="#555"/>
    </marker>
  </defs>

  <!-- ===================== -->
  <!-- Diagram 1 -->
  <!-- ===================== -->

  <!-- UIComposer -->
  <rect x="60" y="80" width="180" height="60" rx="10" fill="#e3f2fd" stroke="#90caf9"/>
  <text x="150" y="116" text-anchor="middle" fill="#0d47a1" font-size="15">
    UIComposer
  </text>

  <!-- MainController -->
  <rect x="760" y="80" width="180" height="60" rx="10" fill="#e8f5e9" stroke="#a5d6a7"/>
  <text x="850" y="116" text-anchor="middle" fill="#1b5e20" font-size="15">
    MainController
  </text>

  <!-- Arrow -->
  <line x1="240" y1="110" x2="760" y2="110" stroke="#555" stroke-width="2" marker-end="url(#arrow)"/>
  <text x="500" y="84" text-anchor="middle" font-size="15" fill="#333">
    UIBundle
  </text>

  <!-- Note -->
  <text x="500" y="180" text-anchor="middle" font-size="14" fill="#555">
    UIBundle = all application controllers
  </text>

  <!-- ===================== -->
  <!-- Diagram 2 -->
  <!-- ===================== -->

  <!-- ServiceComposer -->
  <rect x="60" y="250" width="180" height="60" rx="10" fill="#fff3e0" stroke="#ffcc80"/>
  <text x="150" y="286" text-anchor="middle" fill="#e65100" font-size="15">
    ServiceComposer
  </text>

  <!-- MainController -->
  <rect x="760" y="250" width="180" height="60" rx="10" fill="#e8f5e9" stroke="#a5d6a7"/>
  <text x="850" y="286" text-anchor="middle" fill="#1b5e20" font-size="15">
    MainController
  </text>

  <!-- Arrow -->
  <line x1="240" y1="280" x2="760" y2="280" stroke="#555" stroke-width="2" marker-end="url(#arrow)"/>
  <text x="500" y="254" text-anchor="middle" font-size="15" fill="#333">
    ServiceBundle
  </text>

  <!-- Note -->
  <text x="500" y="350" text-anchor="middle" font-size="14" fill="#555">
    ServiceBundle = all services
  </text>

  <!-- ===================== -->
  <!-- Diagram 3 -->
  <!-- ===================== -->

  <!-- MainController -->
  <rect x="60" y="420" width="180" height="60" rx="10" fill="#e3f2fd" stroke="#90caf9"/>
  <text x="150" y="456" text-anchor="middle" fill="#0d47a1" font-size="15">
    MainController
  </text>

  <!-- PDFService -->
  <rect x="760" y="420" width="180" height="60" rx="10" fill="#f3e5f5" stroke="#ce93d8"/>
  <text x="850" y="456" text-anchor="middle" fill="#6a1b9a" font-size="15">
    PDFService
  </text>

  <!-- Arrow 1 -->
  <line x1="240" y1="435" x2="760" y2="435" stroke="#555" stroke-width="2" marker-end="url(#arrow)"/>
  <text x="500" y="410" text-anchor="middle" font-size="15" fill="#333">
    1. file_path
  </text>

  <!-- Arrow 2 -->
  <line x1="760" y1="465" x2="240" y2="465" stroke="#555" stroke-width="2" marker-end="url(#arrow)"/>
  <text x="500" y="495" text-anchor="middle" font-size="15" fill="#333">
    2. PDFDocument
  </text>

  <!-- ===================== -->
  <!-- Diagram 4 -->
  <!-- ===================== -->

  <!-- MainController -->
  <rect x="60" y="590" width="180" height="60" rx="10" fill="#e3f2fd" stroke="#90caf9"/>
  <text x="150" y="626" text-anchor="middle" fill="#0d47a1" font-size="15">
    MainController
  </text>

  <!-- ToolbarController -->
  <rect x="410" y="590" width="180" height="60" rx="10" fill="#e8f5e9" stroke="#a5d6a7"/>
  <text x="500" y="626" text-anchor="middle" fill="#1b5e20" font-size="15">
    ToolbarController
  </text>

  <!-- ToolbarComponent -->
  <rect x="760" y="590" width="180" height="60" rx="10" fill="#fff3e0" stroke="#ffcc80"/>
  <text x="850" y="626" text-anchor="middle" fill="#e65100" font-size="15">
    ToolbarComponent
  </text>

  <!-- Arrow 1 -->
  <line x1="240" y1="620" x2="410" y2="620" stroke="#555" stroke-width="2" marker-end="url(#arrow)"/>
  <text x="325" y="594" text-anchor="middle" font-size="15" fill="#333">
    PDFDocument
  </text>

  <!-- Arrow 2 -->
  <line x1="590" y1="620" x2="760" y2="620" stroke="#555" stroke-width="2" marker-end="url(#arrow)"/>
  <text x="675" y="594" text-anchor="middle" font-size="15" fill="#333">
    file_name
  </text>

</svg>
