<svg width="1000" height="740" xmlns="http://www.w3.org/2000/svg">

  <!-- Arrow marker -->
  <defs>
    <marker id="arrow" markerWidth="10" markerHeight="10" refX="10" refY="3" orient="auto">
      <path d="M0,0 L10,3 L0,6 Z" fill="#555"/>
    </marker>
  </defs>

  <!-- ===================== -->
  <!-- Diagram 1 -->
  <!-- ===================== -->

  <!-- PDFController -->
  <rect x="60" y="60" width="180" height="60" rx="10" fill="#e8f5e9" stroke="#a5d6a7"/>
  <text x="150" y="96" text-anchor="middle" fill="#1b5e20" font-size="16">
    PDFController
  </text>

  <!-- MainController -->
  <rect x="760" y="60" width="180" height="60" rx="10" fill="#e3f2fd" stroke="#90caf9"/>
  <text x="850" y="96" text-anchor="middle" fill="#0d47a1" font-size="17">
    MainController
  </text>

  <!-- Arrow -->
  <line x1="240" y1="90" x2="760" y2="90" stroke="#555" stroke-width="2" marker-end="url(#arrow)"/>
  <text x="500" y="64" text-anchor="middle" font-size="16" fill="#333">
    raises PDFLoadError(message)
  </text>

  <!-- ===================== -->
  <!-- Diagram 2 -->
  <!-- ===================== -->

  <!-- MainController -->
  <rect x="60" y="200" width="180" height="60" rx="10" fill="#e3f2fd" stroke="#90caf9"/>
  <text x="150" y="236" text-anchor="middle" fill="#0d47a1" font-size="17">
    MainController
  </text>

  <!-- StatusBarController -->
  <rect x="410" y="200" width="180" height="60" rx="10" fill="#e8f5e9" stroke="#a5d6a7"/>
  <text x="500" y="236" text-anchor="middle" fill="#1b5e20" font-size="17">
    StatusBarController
  </text>

  <!-- StatusBarComponent -->
  <rect x="760" y="200" width="180" height="60" rx="10" fill="#fff3e0" stroke="#ffcc80"/>
  <text x="850" y="236" text-anchor="middle" fill="#e65100" font-size="17">
    StatusBarComponent
  </text>

  <!-- Arrow 1 -->
  <line x1="240" y1="230" x2="410" y2="230" stroke="#555" stroke-width="2" marker-end="url(#arrow)"/>
  <text x="325" y="204" text-anchor="middle" font-size="16" fill="#333">
    error_message (str)
  </text>

  <!-- Arrow 2 -->
  <line x1="590" y1="230" x2="760" y2="230" stroke="#555" stroke-width="2" marker-end="url(#arrow)"/>
  <text x="675" y="204" text-anchor="middle" font-size="16" fill="#333">
    error_message (str)
  </text>

  <!-- ===================== -->
  <!-- Diagram 3 -->
  <!-- ===================== -->

  <!-- LLMController -->
  <rect x="60" y="380" width="180" height="60" rx="10" fill="#f3e5f5" stroke="#ce93d8"/>
  <text x="150" y="416" text-anchor="middle" fill="#6a1b9a" font-size="17">
    LLMController
  </text>

  <!-- MainController -->
  <rect x="760" y="380" width="180" height="60" rx="10" fill="#e3f2fd" stroke="#90caf9"/>
  <text x="850" y="416" text-anchor="middle" fill="#0d47a1" font-size="17">
    MainController
  </text>

  <!-- Arrow -->
  <line x1="240" y1="410" x2="760" y2="410" stroke="#555" stroke-width="2" marker-end="url(#arrow)"/>
  <text x="500" y="384" text-anchor="middle" font-size="16" fill="#333">
    raises LLMCallError(message)
  </text>

  <!-- ===================== -->
  <!-- Diagram 4 -->
  <!-- ===================== -->

  <!-- MainController -->
  <rect x="60" y="520" width="180" height="60" rx="10" fill="#e3f2fd" stroke="#90caf9"/>
  <text x="150" y="556" text-anchor="middle" fill="#0d47a1" font-size="17">
    MainController
  </text>

  <!-- StatusBarController -->
  <rect x="410" y="520" width="180" height="60" rx="10" fill="#e8f5e9" stroke="#a5d6a7"/>
  <text x="500" y="556" text-anchor="middle" fill="#1b5e20" font-size="17">
    StatusBarController
  </text>

  <!-- StatusBarComponent -->
  <rect x="760" y="520" width="180" height="60" rx="10" fill="#fff3e0" stroke="#ffcc80"/>
  <text x="850" y="556" text-anchor="middle" fill="#e65100" font-size="17">
    StatusBarComponent
  </text>

  <!-- Arrow 1 -->
  <line x1="240" y1="550" x2="410" y2="550" stroke="#555" stroke-width="2" marker-end="url(#arrow)"/>
  <text x="325" y="524" text-anchor="middle" font-size="16" fill="#333">
    error_message (str)
  </text>

  <!-- Arrow 2 -->
  <line x1="590" y1="550" x2="760" y2="550" stroke="#555" stroke-width="2" marker-end="url(#arrow)"/>
  <text x="675" y="524" text-anchor="middle" font-size="16" fill="#333">
    error_message (str)
  </text>

</svg>
